Coordinates
version=1
nRows=7
nColumns=33
inDegrees=yes

Units are S.I. units (second, meters, Newtons, ...)
Angles are in degrees.

endheader
time	ground_thorax_rot_x	ground_thorax_rot_y	ground_thorax_rot_z	ground_thorax_tx	ground_thorax_ty	ground_thorax_tz	clav_prot_r	clav_elev_r	scapula_abduction_r	scapula_elevation_r	scapula_upward_rot_r	scapula_winging_r	shoulder_elv_r	plane_of_elev_r	axial_rot_r	elbow_flexion_r	pro_sup_r	wrist_flex_r	wrist_dev_r	clav_prot_l	clav_elev_l	scapula_abduction_l	scapula_elevation_l	scapula_upward_rot_l	scapula_winging_l	shoulder_elv_l	plane_of_elev_l	axial_rot_l	elbow_flexion_l	pro_sup_l	wrist_flex_l	wrist_dev_l
      2.14000000	     -2.38379667	      5.52748842	     13.11685102	     -0.11574046	      1.02477815	      0.01829239	     12.12304201	    -14.50044425	     25.31005920	    -10.10642603	      8.25293924	     -4.78752773	    -15.33645829	    -65.79780796	    113.80114817	    -73.08237544	   -159.07975933	      6.46845186	      2.87577201	     16.05587909	     -6.28591864	    -22.87672822	    -14.03366079	    -32.10919620	      4.24308929	     63.83140078	    -14.06190975	      8.56033325	     55.64798760	     14.29594023	     26.20087078	     -9.59084774
      2.15000000	     -2.59050877	      5.77484937	     13.02958855	     -0.11560900	      1.02511087	      0.01806971	     12.35202181	    -14.99024188	     25.92387909	    -10.70174114	      8.70236162	     -4.74208017	    -14.31005102	    -65.05773501	    113.89509590	    -71.41416827	   -158.90540725	      6.00190102	      3.01114408	     16.32140284	     -6.57241447	    -23.30044201	    -13.60209847	    -31.78414133	      4.48885820	     64.06555960	    -13.52741607	      8.22392962	     54.50523955	     14.41796112	     26.28275416	     -9.35765305
      2.16000000	     -2.67007833	      5.87939198	     13.10530043	     -0.11553842	      1.02481060	      0.01769501	     12.42831274	    -14.92220341	     26.41532437	    -10.86452274	      9.34164372	     -4.95621240	    -12.39773560	    -64.29811096	    115.57697350	    -69.49543133	   -158.11549590	      5.14752569	      3.67309930	     16.75439040	     -6.47105717	    -24.02878515	    -13.55273793	    -31.53932525	      4.90421052	     63.50851674	    -12.52417305	      8.69808451	     53.14135322	     14.19919046	     26.60584185	     -9.03934558
      2.17000000	     -2.87760362	      6.10521426	     12.98981296	     -0.11528610	      1.02516924	      0.01742065	     12.65840466	    -15.37758094	     27.06698424	    -11.44508198	      9.84990602	     -4.93353681	    -11.36604612	    -63.55989736	    115.70171622	    -67.59992451	   -157.87431972	      4.69286709	      3.79147718	     17.02184238	     -6.72649746	    -24.45498848	    -13.14357059	    -31.20000821	      5.15250184	     63.66749219	    -11.97645459	      8.44785684	     51.97609551	     14.30595116	     26.67942296	     -8.81424838
      2.18000000	     -3.08609526	      6.22532355	     13.16489263	     -0.11509256	      1.02549488	      0.01713258	     12.84164011	    -15.82423863	     27.69455138	    -12.04722590	     10.44438461	     -4.89002742	    -10.66427540	    -63.11169722	    115.90876178	    -65.55621176	   -157.67195164	      4.26829217	      3.91766456	     17.24894527	     -6.92126433	    -24.81936566	    -12.82880873	    -30.93700226	      5.35952487	     63.68452020	    -11.52520768	      8.18667868	     50.66510772	     14.43936911	     26.75149245	     -8.57651268
      2.19000000	     -3.03793058	      6.39479047	     13.05505783	     -0.11510209	      1.02464370	      0.01681032	     13.08140721	    -15.22963026	     28.46370881	    -11.71303292	     11.05930949	     -5.55390407	     -8.33068190	    -61.82128523	    117.86610300	    -63.26536812	   -156.10947511	      3.90504107	      4.08943738	     17.85265130	     -6.66174996	    -25.83489502	    -12.81988927	    -30.50362904	      5.97363261	     62.77935483	    -10.27082020	      8.70648564	     49.20187878	     14.12167303	     27.08748993	     -8.36683307
      2.20000000	     -3.24324342	      6.51995436	     12.90710356	     -0.11460396	      1.02525294	      0.01644319	     13.24988215	    -15.73764443	     29.11242343	    -12.38985438	     11.72869709	     -5.46781480	     -7.39763545	    -61.18988618	    117.94733458	    -61.03913615	   -155.80160937	      3.48936747	      4.12625619	     18.06601796	     -6.91863533	    -26.17067691	    -12.41348586	    -30.16209733	      6.17398600	     62.86105952	     -9.74600887	      8.72534868	     47.95966622	     14.23810766	     27.08624861	     -8.12367554
